<?xml version="1.0" encoding="UTF-8" standalone="no"?><!DOCTYPE svg PUBLIC "-//W3C//DTD SVG 1.1//EN" "http://www.w3.org/Graphics/SVG/1.1/DTD/svg11.dtd">
<svg  class="w-10 h-10" viewBox="0 0 171 171" version="1.1" xmlns="http://www.w3.org/2000/svg" xmlns:xlink="http://www.w3.org/1999/xlink" xml:space="preserve" xmlns:serif="http://www.serif.com/" style="fill-rule:evenodd;clip-rule:evenodd;stroke-linecap:round;stroke-linejoin:round;">
<path d="M89.793,79.968l33.088,2.078l4.33,16.966l7.987,6.555l-9.932,10.651l-4.209,18.272l-23.498,15.47l3.512,-39.47l-23.769,-6.481l12.491,-24.041Zm-54.376,-58.261l8.691,14.747l-8.691,32.987l16.666,16.494l-7.975,32.988l-23.58,16.494m131.555,-99.14l-31.48,5.49l-17.285,11.794l-17.284,-17.284l0,-18.521l-17.284,-12.277m16.667,163.271c46.023,-0 83.333,-37.31 83.333,-83.333c0,-46.024 -37.31,-83.334 -83.333,-83.334c-46.024,0 -83.334,37.31 -83.334,83.334c0,46.023 37.31,83.333 83.334,83.333Z" class="stroke-white stroke-2"/>
</svg>