

<svg viewBox="0 0 110 111" version="1.1" xml:space="preserve" xmlns:serif="http://www.serif.com/"  class="w-6 h-6" >
<g><path d="M32.364,0.306c5.873,-0.306 7.769,-0.306 22.697,-0.306c14.928,0 16.824,0 22.759,0.306c4.558,0.098 9.068,0.967 13.337,2.569c7.367,2.915 13.164,8.8 15.967,16.21c1.603,4.269 2.471,8.777 2.57,13.335c0.306,5.873 0.306,7.769 0.306,22.694c-0,9.1 -0.114,13.266 -0.203,16.518c-0.057,2.082 -0.103,3.789 -0.103,6.177c-0.099,4.557 -0.967,9.066 -2.57,13.335c-2.859,7.388 -8.7,13.229 -16.09,16.087c-4.269,1.603 -8.778,2.471 -13.337,2.57c-5.873,0.305 -7.769,0.305 -22.695,0.305l-0.002,0c-9.101,0 -13.268,-0.113 -16.52,-0.202c-2.082,-0.057 -3.79,-0.103 -6.178,-0.103c-4.558,-0.099 -9.067,-0.967 -13.337,-2.57c-7.401,-2.872 -13.245,-8.737 -16.09,-16.148c-1.602,-4.269 -2.471,-8.778 -2.569,-13.336c-0.306,-5.872 -0.306,-7.768 -0.306,-22.694c0,-14.925 0,-16.822 0.306,-22.755c0.098,-4.558 0.967,-9.067 2.569,-13.335c2.873,-7.401 8.739,-13.243 16.152,-16.088c4.269,-1.602 8.778,-2.471 13.337,-2.569Zm44.97,9.918c-5.812,-0.306 -7.586,-0.306 -22.269,-0.306l-0,0.122c-9.058,0 -13.197,0.115 -16.391,0.205c-2.005,0.055 -3.637,0.101 -5.878,0.101c-3.489,0.045 -6.945,0.686 -10.217,1.896c-4.73,1.865 -8.474,5.609 -10.339,10.338c-1.211,3.272 -1.852,6.727 -1.897,10.215c-0.306,5.812 -0.306,7.524 -0.306,22.266c0,9.056 0.116,13.196 0.205,16.389c0.056,2.005 0.101,3.636 0.101,5.877c0.045,3.489 0.686,6.943 1.897,10.216c1.865,4.729 5.609,8.472 10.339,10.337c3.272,1.21 6.728,1.852 10.217,1.897c5.812,0.306 7.525,0.306 22.269,0.306c9.057,-0 13.197,-0.116 16.39,-0.205c2.006,-0.056 3.637,-0.101 5.879,-0.101c3.489,-0.045 6.944,-0.687 10.217,-1.897c4.73,-1.865 8.474,-5.608 10.339,-10.337c1.21,-3.273 1.852,-6.727 1.897,-10.216c0.306,-5.811 0.306,-7.524 0.306,-22.266c-0,-9.056 -0.116,-13.195 -0.205,-16.388c-0.056,-2.005 -0.101,-3.636 -0.101,-5.878c-0.045,-3.488 -0.687,-6.943 -1.897,-10.215c-1.865,-4.729 -5.609,-8.473 -10.339,-10.338c-3.265,-1.252 -6.721,-1.934 -10.217,-2.018Z" class="fill-black"/>
<path d="M26.79,55.05c-0,-15.608 12.654,-28.26 28.264,-28.26c7.497,-0 14.686,2.977 19.986,8.277c5.301,5.3 8.279,12.488 8.279,19.983c0,15.608 -12.654,28.261 -28.265,28.261c-15.61,0 -28.264,-12.653 -28.264,-28.261Zm9.917,0.005c0,10.137 8.218,18.354 18.354,18.354c4.868,-0 9.536,-1.934 12.978,-5.376c3.442,-3.442 5.376,-8.11 5.376,-12.978c-0,-10.136 -8.217,-18.354 -18.354,-18.354c-10.136,0 -18.354,8.218 -18.354,18.354Z" class="fill-black"/>
<path d="M84.42,32.309c3.648,0 6.607,-2.958 6.607,-6.607c0,-3.649 -2.959,-6.607 -6.607,-6.607c-3.65,-0 -6.608,2.958 -6.608,6.607c0,3.649 2.958,6.607 6.608,6.607Z" class="fill-black"/></g>
</svg>