<svg class="w-6 h-6" viewBox="0 0 63 60" version="1.1" xmlns="http://www.w3.org/2000/svg" xmlns:xlink="http://www.w3.org/1999/xlink" xml:space="preserve" xmlns:serif="http://www.serif.com/" style="fill-rule:evenodd;clip-rule:evenodd;stroke-linejoin:round;stroke-miterlimit:2;"><path d="M35.158,25.25c-0.027,0.044 -0.064,0.089 -0.088,0.132l0.088,0l0,-0.132c1.789,-2.752 4.98,-6.686 12.129,-6.686c8.857,-0 15.495,5.784 15.495,18.216l0,23.213l-13.458,-0l0,-21.656c0,-5.44 -1.944,-9.153 -6.815,-9.153c-3.72,0 -5.931,2.5 -6.904,4.922c-0.354,0.865 -0.447,2.067 -0.447,3.28l0,22.607l-13.461,0c0,0 0.181,-36.681 0,-40.479l13.461,0l0,5.736Zm-20.903,34.743l-13.455,-0l0,-40.479l13.455,-0l0,40.479Zm-6.727,-46.004l-0.089,0c-4.514,0 -7.439,-3.109 -7.439,-6.996c-0,-3.972 3.011,-6.993 7.616,-6.993c4.606,0 7.436,3.021 7.524,6.993c0,3.887 -2.918,6.996 -7.612,6.996Z" class="fill-black"/></svg>