<?xml version="1.0" encoding="UTF-8" standalone="no"?><!DOCTYPE svg PUBLIC "-//W3C//DTD SVG 1.1//EN" "http://www.w3.org/Graphics/SVG/1.1/DTD/svg11.dtd"><svg width="100%" height="100%" viewBox="0 0 167 167" version="1.1" xmlns="http://www.w3.org/2000/svg" xmlns:xlink="http://www.w3.org/1999/xlink" xml:space="preserve" xmlns:serif="http://www.serif.com/" style="fill-rule:evenodd;clip-rule:evenodd;stroke-linejoin:round;stroke-miterlimit:2;">



<path d="M106.258,114.575l-18.066,0c-12.634,0 -22.909,-10.275 -22.909,-22.908l8.334,-0c-0,8.033 6.533,14.575 14.575,14.575l18.066,-0c8.034,-0 14.575,-6.542 14.575,-14.575c0,-8.034 -6.541,-14.575 -14.575,-14.575l0,-8.334c12.634,0 22.909,10.275 22.909,22.909c-0,12.633 -10.275,22.908 -22.909,22.908Zm-11.141,-25.342l-5.892,5.9l-17.675,-17.683l5.892,-5.892l17.675,17.675Zm-34.709,0.342l0,8.333c-12.633,0 -22.908,-10.275 -22.908,-22.908c0,-12.633 10.275,-22.908 22.908,-22.908l18.075,-0c12.634,-0 22.909,10.275 22.909,22.908l-8.334,0c0,-8.033 -6.541,-14.575 -14.575,-14.575l-18.075,0c-8.033,0 -14.575,6.542 -14.575,14.575c0,8.033 6.542,14.575 14.575,14.575Zm22.925,-89.575c-46.025,0 -83.333,37.308 -83.333,83.333c0,46.025 37.308,83.334 83.333,83.334c46.025,-0 83.334,-37.309 83.334,-83.334c-0,-46.025 -37.309,-83.333 -83.334,-83.333Z" style="fill:#262626;"/></svg>