<?xml version="1.0" encoding="UTF-8" standalone="no"?><!DOCTYPE svg PUBLIC "-//W3C//DTD SVG 1.1//EN" "http://www.w3.org/Graphics/SVG/1.1/DTD/svg11.dtd"><svg width="100%" height="100%" viewBox="0 0 167 167" version="1.1" xmlns="http://www.w3.org/2000/svg" xmlns:xlink="http://www.w3.org/1999/xlink" xml:space="preserve" xmlns:serif="http://www.serif.com/" style="fill-rule:evenodd;clip-rule:evenodd;stroke-linejoin:round;stroke-miterlimit:2;">

<path d="M166.667,115.275l-0,26.392c-0,13.308 -10.409,24.191 -23.534,24.958l-1.466,0.042l-26.392,-0l-0,-51.392l51.392,0Zm-106.942,51.392l47.225,-0l-0,-51.392l-47.225,0l-0,51.392Zm-8.333,-51.392l-0,51.392l-26.392,-0c-13.317,-0 -24.2,-10.417 -24.958,-23.525l-0.042,-1.475l-0,-26.392l51.392,0Zm8.333,-8.333l47.225,-0l-0,-47.225l-47.225,-0l-0,47.225Zm55.55,-0l51.392,-0l-0,-47.225l-51.392,-0l-0,47.225Zm-115.275,-0l51.392,-0l-0,-47.225l-51.392,-0l-0,47.225Zm141.667,-106.942c13.808,0 25,11.192 25,25l-0,26.383l-51.392,0l-0,-51.383l26.392,0Zm-81.95,51.383l47.225,0l-0,-51.383l-47.225,0l-0,51.383Zm-8.325,-51.383l-0,51.383l-51.392,0l-0,-26.383c-0,-13.317 10.408,-24.192 23.525,-24.958l1.475,-0.042l26.392,0Z" style="fill:#262626;"/></svg>