<?xml version="1.0" standalone="no"?>
<svg xmlns="http://www.w3.org/2000/svg" width="48" height="48" fill="none" viewBox="0 0 24 24"> <g fill="none" fill-rule="evenodd"><rect width="24" height="24" style="stroke:rgba(0,0,0,0)"></rect><path d="M18,2 C19.657,2 21,3.343 21,5 C21,6.657 19.657,8 18,8 C17.147,8 16.377,7.644 15.831,7.072 L8.872,11.131 C8.956,11.406 9,11.698 9,12 C9,12.409 8.918,12.799 8.77,13.155 L15.634,17.155 C16.183,16.452 17.039,16 18,16 C19.657,16 21,17.343 21,19 C21,20.657 19.657,22 18,22 C16.343,22 15,20.657 15,19 C15,18.662 15.056,18.338 15.159,18.035 L8.234,14.002 C7.685,14.615 6.888,15 6,15 C4.343,15 3,13.657 3,12 C3,10.343 4.343,9 6,9 C6.997,9 7.88,9.486 8.426,10.234 L15.268,6.241 C15.096,5.863 15,5.443 15,5 C15,3.343 16.343,2 18,2" stroke="#000000"></path></g></svg>