<?xml version="1.0" encoding="UTF-8" standalone="no"?><!DOCTYPE svg PUBLIC "-//W3C//DTD SVG 1.1//EN" "http://www.w3.org/Graphics/SVG/1.1/DTD/svg11.dtd">
<svg   viewBox="0 0 122 99" class="w-6 h-6" style="fill-rule:evenodd;clip-rule:evenodd;stroke-linejoin:round;stroke-miterlimit:2;">
<g><path d="M121.448,11.681c-4.569,1.992 -9.4,3.316 -14.346,3.932c5.21,-3.092 9.109,-7.991 10.953,-13.762c-4.881,2.895 -10.221,4.933 -15.789,6.027c-4.705,-5.024 -11.288,-7.878 -18.171,-7.878c-13.658,-0 -24.897,11.239 -24.897,24.897c0,0.002 0,0.004 0,0.006c0,1.974 0.167,3.871 0.577,5.678c-20.023,-0.982 -38.705,-10.462 -51.319,-26.043c-6.598,11.308 -3.224,25.986 7.651,33.277c-3.941,-0.106 -7.8,-1.158 -11.249,-3.067l-0,0.273c0.013,11.807 8.385,22.075 19.948,24.465c-2.13,0.561 -4.325,0.837 -6.528,0.819c-1.582,0.028 -3.162,-0.114 -4.714,-0.425c3.289,10.102 12.644,17.077 23.265,17.344c-8.811,6.892 -19.685,10.632 -30.87,10.62c-2.05,-0 -4.001,-0.092 -5.959,-0.342c11.384,7.336 24.653,11.217 38.195,11.173c45.816,0 70.865,-37.952 70.865,-70.849c-0,-1.101 -0.038,-2.164 -0.091,-3.219c4.911,-3.514 9.139,-7.895 12.479,-12.926Z" class="fill-black"/></g></svg>