<svg viewBox="0 0 171 171" version="1.1" xmlns="http://www.w3.org/2000/svg" xmlns:xlink="http://www.w3.org/1999/xlink" xml:space="preserve" xmlns:serif="http://www.serif.com/" class="fill-black w-6 h-6 ">
<path d="M142.252,106.345c-6.025,-5.95 -13.542,-5.95 -19.525,-0c-4.567,4.525 -9.134,9.05 -13.625,13.658c-1.225,1.267 -2.267,1.533 -3.759,0.692c-2.958,-1.617 -6.1,-2.917 -8.941,-4.684c-13.234,-8.325 -24.317,-19.033 -34.142,-31.075c-4.875,-5.991 -9.208,-12.391 -12.242,-19.608c-0.616,-1.458 -0.5,-2.417 0.692,-3.6c4.567,-4.417 9.017,-8.942 13.508,-13.475c6.25,-6.292 6.25,-13.65 -0.041,-19.983c-3.567,-3.609 -7.142,-7.142 -10.7,-10.742c-3.692,-3.683 -7.334,-7.408 -11.05,-11.05c-6.025,-5.867 -13.542,-5.867 -19.534,0.042c-4.6,4.516 -9.016,9.166 -13.691,13.616c-4.342,4.1 -6.525,9.125 -6.984,15c-0.733,9.55 1.609,18.567 4.909,27.35c6.75,18.192 17.033,34.342 29.5,49.15c16.85,20.034 36.95,35.875 60.466,47.309c10.592,5.141 21.559,9.091 33.5,9.741c8.2,0.467 15.342,-1.608 21.059,-8.016c3.916,-4.375 8.325,-8.367 12.466,-12.542c6.142,-6.217 6.175,-13.742 0.075,-19.883c-7.283,-7.317 -14.616,-14.609 -21.941,-21.9Z" class="stroke-black stroke-1">
</svg>